<svg width="215" height="80" viewBox="0 0 215 80" fill="none" xmlns="http://www.w3.org/2000/svg">
<path d="M0 0H179C198.882 0 215 16.1177 215 36V80H36C16.1177 80 0 63.8823 0 44V0Z" fill="#FF4B15"/>
<path d="M44.804 49.564H58.484V55H40.376V30.16H58.304V35.596H44.804V39.88H57.116V45.136H44.804V49.564ZM64.5874 55V30.16H69.5914L81.0394 45.892H81.6514V30.16H86.1154V55H81.0754L69.6634 39.268H69.0154V55H64.5874ZM100.39 55L91.21 30.16H95.962L102.982 48.664H103.702L110.722 30.16H115.942L106.762 55H100.39ZM121.061 55V30.16H125.489V55H121.061ZM151.405 55L149.677 50.608H137.437L135.709 55H130.633L140.101 30.16H146.653L156.085 55H151.405ZM139.525 45.172H147.553L144.025 36.172H143.053L139.525 45.172ZM176.377 55L171.049 47.224H165.685V55H161.257V30.16H172.633C175.129 30.16 177.217 30.976 178.897 32.608C180.601 34.24 181.453 36.268 181.453 38.692C181.453 40.516 180.961 42.136 179.977 43.552C178.993 44.944 177.685 45.964 176.053 46.612L181.777 55H176.377ZM165.685 35.596V41.788H172.525C173.845 41.788 174.889 41.512 175.657 40.96C176.449 40.384 176.845 39.628 176.845 38.692C176.845 37.756 176.449 37.012 175.657 36.46C174.889 35.884 173.845 35.596 172.525 35.596H165.685Z" fill="white"/>
</svg>
