<svg width="529" height="133" viewBox="0 0 529 133" fill="none" xmlns="http://www.w3.org/2000/svg">
<path d="M0 0H486C509.748 0 529 19.2518 529 43V133H43C19.2517 133 0 113.748 0 90V0Z" fill="#FF4B15"/>
<path d="M89.16 64H103.16V80H99.36V74.48C97.1733 78.48 93.68 80.48 88.88 80.48C84.72 80.48 81.24 79.12 78.44 76.4C75.6667 73.6533 74.28 70.2533 74.28 66.2C74.28 62.1467 75.6667 58.76 78.44 56.04C81.24 53.2933 84.72 51.92 88.88 51.92C92.1867 51.92 95.0933 52.8 97.6 54.56C100.133 56.32 101.773 58.5867 102.52 61.36H96.72C95.92 60.3467 94.8267 59.5467 93.44 58.96C92.08 58.3733 90.56 58.08 88.88 58.08C86.1867 58.08 83.92 58.8533 82.08 60.4C80.2667 61.9467 79.36 63.88 79.36 66.2C79.36 68.52 80.2667 70.4533 82.08 72C83.92 73.5467 86.1867 74.32 88.88 74.32C90.96 74.32 92.8 73.9067 94.4 73.08C96 72.2533 97.1467 71.1467 97.84 69.76H89.16V64ZM112.748 73.96H127.948V80H107.827V52.4H127.748V58.44H112.748V63.2H126.428V69.04H112.748V73.96ZM148.729 80L142.809 71.36H136.849V80H131.929V52.4H144.569C147.342 52.4 149.662 53.3067 151.529 55.12C153.422 56.9333 154.369 59.1867 154.369 61.88C154.369 63.9067 153.822 65.7067 152.729 67.28C151.636 68.8267 150.182 69.96 148.369 70.68L154.729 80H148.729ZM136.849 58.44V65.32H144.449C145.916 65.32 147.076 65.0133 147.929 64.4C148.809 63.76 149.249 62.92 149.249 61.88C149.249 60.84 148.809 60.0133 147.929 59.4C147.076 58.76 145.916 58.44 144.449 58.44H136.849ZM179.173 80L177.253 75.12H163.653L161.733 80H156.093L166.613 52.4H173.893L184.373 80H179.173ZM165.973 69.08H174.893L170.973 59.08H169.893L165.973 69.08ZM204.12 80L198.2 71.36H192.24V80H187.32V52.4H199.96C202.733 52.4 205.053 53.3067 206.92 55.12C208.813 56.9333 209.76 59.1867 209.76 61.88C209.76 63.9067 209.213 65.7067 208.12 67.28C207.026 68.8267 205.573 69.96 203.76 70.68L210.12 80H204.12ZM192.24 58.44V65.32H199.84C201.306 65.32 202.466 65.0133 203.32 64.4C204.2 63.76 204.64 62.92 204.64 61.88C204.64 60.84 204.2 60.0133 203.32 59.4C202.466 58.76 201.306 58.44 199.84 58.44H192.24ZM222.359 80V52.4H229.479L236.439 65.92H237.319L244.319 52.4H251.679V80H246.759V61.6H245.879L239.439 74.6H234.559L228.159 61.6H227.279V80H222.359ZM264.648 50.32L268.648 44.4H276.168L270.808 50.32H264.648ZM276.208 77.28C274.021 79.4133 271.288 80.48 268.008 80.48C264.728 80.48 261.981 79.4133 259.768 77.28C257.581 75.1467 256.488 72.48 256.488 69.28V52.4H261.408V69.2C261.408 70.6667 262.035 71.8933 263.288 72.88C264.541 73.84 266.115 74.32 268.008 74.32C269.875 74.32 271.435 73.84 272.688 72.88C273.941 71.8933 274.568 70.6667 274.568 69.2V52.4H279.528V69.28C279.528 72.48 278.421 75.1467 276.208 77.28ZM294.273 80.48C290.993 80.48 288.259 79.6267 286.073 77.92C283.886 76.2133 282.793 74.0933 282.793 71.56H287.873C287.873 72.4667 288.499 73.2267 289.753 73.84C291.006 74.4533 292.579 74.76 294.473 74.76C296.153 74.76 297.566 74.52 298.713 74.04C299.859 73.5333 300.433 72.88 300.433 72.08C300.433 71.6 300.219 71.1733 299.793 70.8C299.366 70.4267 298.713 70.1067 297.833 69.84C296.979 69.5733 296.193 69.3733 295.473 69.24C294.779 69.1067 293.859 68.9467 292.713 68.76C289.966 68.3333 287.699 67.4267 285.913 66.04C284.153 64.6533 283.273 62.7867 283.273 60.44C283.273 57.9067 284.299 55.8533 286.353 54.28C288.406 52.7067 290.979 51.92 294.073 51.92C297.219 51.92 299.833 52.7467 301.913 54.4C303.993 56.0267 305.033 58.0533 305.033 60.48H299.953C299.953 59.68 299.379 59.0133 298.233 58.48C297.086 57.92 295.646 57.64 293.913 57.64C292.313 57.64 290.993 57.88 289.953 58.36C288.913 58.8133 288.393 59.4 288.393 60.12C288.393 61.56 290.793 62.6133 295.593 63.28C298.553 63.7333 300.953 64.6267 302.793 65.96C304.633 67.2933 305.553 69.16 305.553 71.56C305.553 74.2 304.473 76.3467 302.313 78C300.153 79.6533 297.473 80.48 294.273 80.48ZM309.312 80V52.4H314.232V80H309.312ZM332.747 80.48C328.587 80.48 325.107 79.12 322.307 76.4C319.534 73.6533 318.147 70.2533 318.147 66.2C318.147 62.1467 319.534 58.76 322.307 56.04C325.107 53.2933 328.587 51.92 332.747 51.92C336.347 51.92 339.454 52.9733 342.067 55.08C344.681 57.16 346.321 59.8533 346.987 63.16H341.707C341.014 61.64 339.867 60.4133 338.267 59.48C336.667 58.5467 334.827 58.08 332.747 58.08C330.054 58.08 327.787 58.8533 325.947 60.4C324.134 61.9467 323.227 63.88 323.227 66.2C323.227 68.52 324.134 70.4533 325.947 72C327.787 73.5467 330.054 74.32 332.747 74.32C334.827 74.32 336.667 73.8533 338.267 72.92C339.867 71.9867 341.014 70.76 341.707 69.24H346.987C346.321 72.5467 344.681 75.2533 342.067 77.36C339.454 79.44 336.347 80.48 332.747 80.48ZM369.602 80L367.682 75.12H354.082L352.162 80H346.522L357.042 52.4H364.322L374.802 80H369.602ZM356.402 69.08H365.322L361.402 59.08H360.322L356.402 69.08Z" fill="white"/>
<path d="M424.544 62.0258L462.943 52.6177" stroke="white" stroke-width="5" stroke-miterlimit="10"/>
<path d="M424.045 86.6318L423.834 77.5403C423.721 69.9527 423.784 65.5766 423.834 60.1601C423.883 55.0716 424.045 51.3965 424.095 46.1158C424.095 45.4373 425.392 42.4407 428.457 41.5474C437.144 39.0031 449.022 35.656 457.896 34.0616C459.765 33.7224 462.345 34.8079 462.831 36.7416C463.08 37.7366 463.031 44.5666 462.831 50.5598C462.706 54.4383 462.769 59.606 462.831 67.2841V76.1947" stroke="white" stroke-width="5" stroke-miterlimit="10"/>
<path d="M453.397 67.7254C465.66 67.454 466.134 84.5401 453.883 84.6645C442.08 84.755 441.631 68.3247 453.397 67.7254Z" stroke="white" stroke-width="5" stroke-miterlimit="10"/>
<path d="M414.598 78.0598C426.862 77.7885 427.336 94.8746 415.085 94.999C403.282 95.0895 402.833 78.6592 414.598 78.0598Z" stroke="white" stroke-width="5" stroke-miterlimit="10"/>
</svg>
