<?xml version="1.0" encoding="UTF-8"?>
<svg id="Layer_2" xmlns="http://www.w3.org/2000/svg" viewBox="0 0 1116.71 367.4">
  <defs>
    <style>
      .cls-1 {
        fill-rule: evenodd;
      }

      .cls-1, .cls-2 {
        fill: #fff;
      }

      .cls-3 {
        fill: #231f20;
      }
    </style>
  </defs>
  <g id="Layer_1-2" data-name="Layer_1">
    <g>
      <g>
        <path class="cls-2" d="M868.3,149.74c0-2.33,0-5.31,0-9.94,0-14.07,0-54.75,0-61.94,0-2.37-1.82-4.25-4.64-3.73-10.7,1.97-36.01,6.81-47.95,9.09-1.15.22-2.88.97-3.16,2.77-.37,2.41-.6,4.23-.89,7.02-.19,1.8.27,3.27,2.66,4.06,5.35,1.75,10.44,3.42,15.71,5.15v186.64c0,2.01,1.58,3.67,3.58,3.77,4.15.22,8.18.59,11.78-.47,2.13-.63,4.59-3.83,6.27-6.18.9-1.26,2.62-1.48,3.89-.6,12.2,8.51,26.02,10.34,40.55,9.75,27.79-1.13,50.87-18.14,59.12-44.63,6.35-20.37,4.97-47.63-3.16-67.24-18.07-43.58-56.12-37.76-72.72-24.14-2.48,2.04-9.95,7.78-13.62,10.92-2.05,1.76-3.57,1.13-2.68-1.1,2.26-5.69,5.26-15.74,5.26-19.19M868.34,203.86c0-6.98-.02-12.75-.05-16.07-.02-2.3,2.08-3.55,4.27-4.66,4.18-2.11,11.25-5.3,17.1-6.17,9.51-1.41,16.53,2.66,20.03,11.65,2.53,6.49,4.04,13.57,4.8,20.51,1.44,13.14.83,33.18-2.1,46.15-.35,1.55-.86,3.07-1.38,4.57-6.33,18.19-23.67,24.18-39.49,13.03-1.01-.71-3.23-2.58-3.23-3.87,0-11.62.05-46.23.04-65.14"/>
        <path class="cls-2" d="M1038.18,209.13c1.09-.34,1.83-1.39,1.81-2.53,0-33.36-9.94-38.09-23.56-37.71-3.11,0-4.48,1.16-5.5,2.92-2.78,4.8-9.34,23.22-11.51,28.66-.96,2.51-2.17,3.61-4.95,3.44-3.13-.19-6.27-.12-9.69-.08-1.85.02-3.44-1.32-3.77-3.13-1.04-5.79-2.07-11.53-3.11-17.27-.86-4.77-1.93-9.51-2.47-14.31-.18-1.6.49-4.18,1.64-4.9,23.59-14.63,48.84-19.24,75.78-11.49,16.51,4.75,24.56,17.08,27.12,33.16,1.4,8.79,1.67,17.81,1.8,26.74,0,8.43,0,44.23,0,54.21,0,3.13.67,4.91,3.88,5.92,5.06,1.59,8.85,3.22,12.44,5.03,1.33.67,2.63,2.42,2.69,3.91.11,2.84-.46,6.93-1.04,8.54-.57,1.6-.76,2.2-3.53,2.39-17.08,1.18-41.84,2.81-45.32,2.99-1.81.09-3.45-1.1-3.89-2.85l-3.43-13.65c-8.52,3.78-29.92,12.84-32.4,13.97-23.08,10.51-47.75-13.57-44.53-39.94,1.75-14.38,6.36-23.63,19.9-27.9,10.93-3.44,32.58-10.22,51.61-16.1ZM1039.99,229.79c0-1.75-1.75-3.01-3.41-2.47-8.93,2.91-17.45,5.63-25.89,8.59-1.55.54-2.93,2.19-3.9,3.65-5.24,7.97-3.45,24.47,3.48,30.94,1.16,1.08,3.69,1.82,5.08,1.31,7.51-2.75,14.89-5.88,22.24-9.04,1.01-.43,2.23-1,2.31-3.65.28-9.89.1-18.89.09-29.33Z"/>
        <g>
          <g>
            <path class="cls-1" d="M1103.23,149.48c-7.55,0-13.52,5.97-13.52,13.52,0,7.43,5.97,13.4,13.52,13.4,7.43,0,13.4-5.97,13.4-13.4,0-7.55-5.97-13.52-13.4-13.52ZM1103.23,174.69c-6.46,0-11.57-5.24-11.57-11.69,0-6.58,5.11-11.81,11.57-11.81,6.33,0,11.57,5.24,11.57,11.81,0,6.46-5.24,11.69-11.57,11.69Z"/>
            <path class="cls-3" d="M1103.23,176.47c-3.67,0-7.09-1.4-9.64-3.94-2.55-2.53-3.95-5.92-3.95-9.54,0-7.62,5.97-13.59,13.59-13.59,3.62,0,7.01,1.4,9.54,3.95,2.54,2.55,3.93,5.98,3.93,9.64s-1.4,7-3.93,9.54c-2.54,2.54-5.92,3.94-9.54,3.94ZM1103.23,149.55c-7.54,0-13.44,5.9-13.44,13.44,0,3.58,1.39,6.93,3.91,9.43,2.53,2.51,5.91,3.89,9.54,3.89s6.92-1.38,9.43-3.89c2.51-2.51,3.89-5.86,3.89-9.43s-1.38-7.01-3.89-9.54c-2.5-2.52-5.85-3.91-9.43-3.91ZM1103.23,174.76c-3.13,0-6.07-1.22-8.26-3.45-2.18-2.22-3.39-5.17-3.39-8.32s1.2-6.19,3.39-8.42c2.19-2.23,5.12-3.46,8.26-3.46,6.42,0,11.64,5.33,11.64,11.89s-5.22,11.77-11.64,11.77ZM1103.23,151.26c-3.1,0-6,1.21-8.15,3.42-2.16,2.2-3.34,5.16-3.34,8.32s1.19,6.03,3.34,8.21c2.16,2.19,5.06,3.4,8.15,3.4,6.34,0,11.49-5.21,11.49-11.62s-5.16-11.74-11.49-11.74Z"/>
          </g>
          <g>
            <path class="cls-1" d="M1108.61,159.62c0-2.56-1.4-4.08-4.78-4.08h-.58s-5.12,0-5.12,0v14.79s1.75,0,1.75,0v-6.52h3.14s.23.23.23.23l4.08,6.29h1.98s-4.31-6.52-4.31-6.52c1.98-.35,3.61-1.51,3.61-4.19ZM1103.26,162.3h-3.38v-5.24h3.38s.23,0,.23,0c1.75,0,3.49.58,3.49,2.56,0,2.1-1.51,2.68-3.49,2.68h-.23Z"/>
            <path class="cls-3" d="M1109.45,170.41h-2.16l-.02-.03-4.08-6.29-.2-.2h-3.04v6.52h-1.9v-14.94h5.78c3.22,0,4.85,1.4,4.85,4.15,0,2.92-1.91,3.93-3.56,4.25l4.32,6.54ZM1107.37,170.26h1.8l-4.3-6.5.11-.02c1.62-.29,3.55-1.23,3.55-4.12,0-2.69-1.54-4-4.7-4h-5.63v14.64h1.6v-6.52h3.25l.26.26,4.06,6.27ZM1103.49,162.37h-3.69v-5.39h3.69c3.11,0,3.57,1.65,3.57,2.64,0,1.85-1.17,2.75-3.57,2.75ZM1099.95,162.22h3.54c2.33,0,3.42-.83,3.42-2.6,0-2.16-2.14-2.49-3.42-2.49h-3.54v5.09Z"/>
          </g>
        </g>
        <g>
          <g>
            <path class="cls-2" d="M92.65,58.97c-.8.11-1.54-.47-1.65-1.3l-2.97-22.21-3.51-25.43c-.15-1.06.8-1.94,1.81-1.68l21.44,5.42c.76.19,1.24.97,1.09,1.76l-3.9,20.76-4.31,20.57c-.13.63-.63,1.1-1.25,1.18l-6.76.92Z"/>
            <path class="cls-2" d="M48.9,67.09L14.55,28.82c-.52-.57-.52-1.46-.01-2.04L37.47.5c.72-.83,2.04-.6,2.45.43l24.07,59c.31.77-.04,1.65-.78,1.98l-12.65,5.55c-.57.25-1.24.1-1.66-.37Z"/>
            <path class="cls-2" d="M153.42,14.57l-29.18,46.41c-.42.67-.27,1.55.35,2.03l6.14,4.77c.53.41,1.27.41,1.79-.01l16.61-13.33s.04-.03.07-.05l22.64-16.16c.69-.5.84-1.49.32-2.17l-16.35-21.59c-.62-.82-1.85-.77-2.4.11Z"/>
            <path class="cls-2" d="M180.43,272.02c-4.86-22.41-27.59-45.32-60.72-70.12-29.14-21.81-44.26-31.63-50.54-42.94-10.62-19.12-1.4-44.16,24.21-47.84,13.22-1.9,29.73-.72,36.6,8.28,5.34,6.99,10.1,17.83,10.62,26.61.59,9.93-1.32,23.14-7.68,31.28-1.1,1.4-1.28,3.32-.25,4.81,1.47,2.11,3.8,4.89,6.37,6.21,1.07.55,2.32.52,3.37-.04,8.86-4.76,23.33-14.81,28.11-39.15,5.08-25.9-6.04-51.95-30.54-65.29-24.74-13.47-57.41-12.69-80.29-3.44-24.7,9.99-56.33,44.11-48.48,82.54,4.65,22.77,15.55,32.87,32.38,46.6,9.54,7.79,28.89,18.45,45.83,31.03,22.64,16.82,44.6,29.27,39.39,54.64-1.64,10.23-5.77,16.51-13.9,23.64-5.76,5.04-21.61,10.33-33.68,9.42-6.95-.52-14.39-2.58-24.23-7.28-9.84-4.69-17.61-15.35-20.18-31.54-3.58-22.5,1.57-33.87,11.96-42.89,1.62-1.41-1.01-8.04-5.47-10.37-.83-.44-1.81-.46-2.7-.19-12.25,3.65-48.27,32.08-39.13,77.33,3.44,17.03,17.48,30.42,22.5,34.9,5.02,4.48,20.39,18.66,57.48,19,32.11.29,63.11-8.89,84.14-32.85,13.45-15.32,18.5-45.45,14.84-62.34Z"/>
          </g>
          <path class="cls-2" d="M262.08,209.13c1.09-.34,1.83-1.39,1.81-2.53,0-33.36-9.94-38.09-23.56-37.71-3.11,0-4.48,1.16-5.5,2.92-2.78,4.8-9.34,23.22-11.51,28.66-.96,2.51-2.17,3.61-4.95,3.44-3.13-.19-6.27-.12-9.69-.08-1.85.02-3.44-1.32-3.77-3.13-1.04-5.79-2.07-11.53-3.11-17.27-.86-4.77-1.93-9.51-2.47-14.31-.18-1.6.49-4.18,1.64-4.9,23.59-14.63,48.84-19.24,75.78-11.49,16.51,4.75,24.56,17.08,27.12,33.16,1.4,8.79,1.67,17.81,1.8,26.74,0,8.43,0,44.23,0,54.21,0,3.13.67,4.91,3.88,5.92,5.06,1.59,8.85,3.22,12.44,5.03,1.33.67,2.63,2.42,2.69,3.91.11,2.84-.46,6.93-1.04,8.54s-.76,2.2-3.53,2.39c-17.08,1.18-41.84,2.81-45.32,2.99-1.81.09-3.45-1.1-3.89-2.85l-3.43-13.65c-8.52,3.78-29.92,12.84-32.4,13.97-23.08,10.51-47.75-13.57-44.53-39.94,1.75-14.38,6.36-23.63,19.9-27.9,10.93-3.44,32.58-10.22,51.61-16.1ZM263.89,229.79c0-1.75-1.75-3.01-3.41-2.47-8.93,2.91-17.45,5.63-25.89,8.59-1.55.54-2.93,2.19-3.9,3.65-5.24,7.97-3.45,24.47,3.48,30.94,1.16,1.08,3.69,1.82,5.08,1.31,7.51-2.75,14.89-5.88,22.24-9.04,1.01-.43,2.23-1,2.31-3.65.28-9.89.1-18.89.09-29.33Z"/>
          <path class="cls-2" d="M479.32,151c-8.85,1.19-27.58,3.7-36.99,4.99-1.55.21-3.95-.16-5.38-.77-17.57-7.37-35.46-7.88-53.44-1.94-26.52,8.76-40.8,33.42-34.41,60.04,1.67,6.95,5.22,14.34,10.46,20.98-11.14,7.19-24.55,14.57-26.22,30.25-1.63,15.31,2.81,27.98,18.44,35.64,0,0-10.17,7.49-15.03,12.59-4.56,4.79-4.21,11.64-1.08,18.61,10.43,23.24,41.48,33.93,63.79,35.64,18.95,1.46,37.27-1.18,54.07-10.61,33.29-18.69,31.24-50.4,15.81-72.28-1.37-1.94-3.59-4.17-5.73-4.53-9.4-1.62-18.91-2.6-28.38-3.84-19.99-2.62-39.98-5.19-59.95-7.94-6.75-.93-9.49-4.56-8.07-9.9,1.54-5.78,9.38-11.25,13.99-9.51,14.16,5.35,28.57,5.95,43.39,3.18,28.46-5.32,46.94-30.05,42.62-58.17-.95-6.19-3.77-12.1-5.73-18.14l15.49,1.8c2.06.24,3.93-1.21,4.19-3.24l2.4-18.64c.31-2.44-1.77-4.51-4.23-4.18ZM371.04,306.69c1.26-1.48,3.58-1.19,5.32-.93,11.96,1.77,52.88,8.31,61.38,9.72,11.75,1.96,15.44,7.55,9,17.52-6.17,9.55-16.4,20.3-49.53,15.73-33.13-4.57-36.29-30.15-26.17-42.05ZM407.65,232.72c-15.76,0-17.1-22.23-17.1-30.86s1.01-31.53,17.1-31.53,16.42,22.9,16.42,31.53-.67,30.86-16.42,30.86Z"/>
          <path class="cls-2" d="M563.24,209.13c1.09-.34,1.83-1.39,1.81-2.53,0-33.36-9.94-38.09-23.56-37.71-3.11,0-4.48,1.16-5.5,2.92-2.78,4.8-9.34,23.22-11.51,28.66-.96,2.51-2.17,3.61-4.95,3.44-3.13-.19-6.27-.12-9.69-.08-1.85.02-3.44-1.32-3.77-3.13-1.04-5.79-2.07-11.53-3.11-17.27-.86-4.77-1.93-9.51-2.47-14.31-.18-1.6.49-4.18,1.64-4.9,23.59-14.63,48.84-19.24,75.78-11.49,16.51,4.75,24.56,17.08,27.12,33.16,1.4,8.79,1.67,17.81,1.8,26.74,0,8.43,0,44.23,0,54.21,0,3.13.67,4.91,3.88,5.92,5.06,1.59,8.85,3.22,12.44,5.03,1.33.67,2.63,2.42,2.69,3.91.11,2.84-.46,6.93-1.04,8.54s-.76,2.2-3.53,2.39c-17.08,1.18-41.84,2.81-45.32,2.99-1.81.09-3.45-1.1-3.89-2.85l-3.43-13.65c-8.52,3.78-29.92,12.84-32.4,13.97-23.08,10.51-47.75-13.57-44.53-39.94,1.75-14.38,6.36-23.63,19.9-27.9,10.93-3.44,32.58-10.22,51.61-16.1ZM565.06,229.79c0-1.75-1.75-3.01-3.41-2.47-8.93,2.91-17.45,5.63-25.89,8.59-1.55.54-2.93,2.19-3.9,3.65-5.24,7.97-3.45,24.47,3.48,30.94,1.16,1.08,3.69,1.82,5.08,1.31,7.51-2.75,14.89-5.88,22.24-9.04,1.01-.43,2.23-1,2.31-3.65.28-9.89.1-18.89.09-29.33Z"/>
          <path class="cls-2" d="M721.25,271.19l-1.52,8.96c-.13.75-.45,1.46-.97,2.01-11.88,12.76-34.17,15.11-51.66,9.82-13.69-4.14-24.9-20-24.9-47.72,0-23.63-.09-60.75-.12-72.52,0-2.01-1.64-3.63-3.65-3.63h-17c-1.03,0-1.8-.93-1.66-1.95.49-3.46.86-6.58,1.59-9.61.28-1.15,1.77-2.26,2.97-2.87,7.1-3.63,14.36-6.97,21.39-10.73,2.97-1.59,5.34-4.15,6.77-7.2,4.22-8.94,8.14-18.03,12.02-27.13.97-2.27,2.1-3.36,4.67-3.23,3.57.17,7.15.08,11.08.06.93,0,1.73.73,1.76,1.66l1.42,38.49c.08,2.06,1.76,3.69,3.82,3.7,6.12,0,18.35,0,24.77,0,2.23,0,3.96,1.93,3.73,4.14l-1.19,11.69c-.2,1.93-1.82,3.4-3.76,3.4h-31.43c-1.72,0-2.36,1.45-1.81,3.34.55,1.89,4.59,11.88,5.56,14.28.89,2.2.92,3.45.92,5.77,0,9.29.13,46.01.13,52.76,0,21.67,14.69,28.72,33.73,23.46,1.88-.52,3.65,1.12,3.32,3.04Z"/>
        </g>
      </g>
      <path class="cls-2" d="M791.52,269.5c0,1.55.97,2.94,2.41,3.52,4.8,1.91,9.39,3.78,14.05,5.45,1.99.71,2.6,1.82,2.36,3.7l-.88,6.87c-.24,1.89-1.85,3.3-3.75,3.3h-70.34c-2.19,0-3.93-1.85-3.77-4.04.18-2.57.45-5.63.74-6.82.55-2.22,1.81-2.72,2.93-3.19,4.4-1.84,8.89-3.48,13.4-5.05,1.98-.69,3-1.53,2.99-3.92-.09-27.14.02-76.3.02-78.41,0-4.73-.73-5.53-2.61-6.25-4.8-1.89-9.67-3.82-14.61-5.8-1.63-.65-2.63-2.38-2.39-4.13,1.06-7.68,2.02-7.94,11.27-10.08,11.75-2.72,34-7.67,43.61-9.73,2.35-.51,4.57,1.29,4.57,3.7v110.88Z"/>
      <circle class="cls-2" cx="770.99" cy="111.77" r="22.62"/>
    </g>
  </g>
</svg>